<svg height="512" viewBox="0 0 46 60" width="512" xmlns="http://www.w3.org/2000/svg"><g id="Page-1" fill="none" fill-rule="evenodd"><g id="004---Happy-Woman" fill-rule="nonzero"><path id="Shape" d="m40 24c0 2.209139-1.790861 4-4 4-1.0727646 2.43417-2.723966 4.5694033-4.81 6.22-2.3156117 1.8640142-5.0458157 3.1433686-7.96 3.73-.1518664.029995-.3081336.029995-.46 0-2.9142338-.5864814-5.6444719-1.8658518-7.96-3.73-2.086034-1.6505967-3.7372354-3.78583-4.81-6.22-2.209139 0-4-1.790861-4-4s1.790861-4 4-4v-4.1c5.18-.36 10.49-1.88 13-6.9 2.51 5.02 7.82 6.54 13 6.9v4.1c2.209139 0 4 1.790861 4 4z" fill="#ffe0b2"/><path id="Shape" d="m36 20v-4.1c-5.18-.36-10.49-1.88-13-6.9-.4044665.80762488-.9083792 1.5614783-1.5 2.244 2.8 3.248 7.193 4.356 11.5 4.656v4.1c2.209139 0 4 1.790861 4 4s-1.790861 4-4 4c-1.0727646 2.43417-2.723966 4.5694033-4.81 6.22-1.9686028 1.5908606-4.2469894 2.7542341-6.69 3.416.421.117.844.225 1.27.314.1518664.029995.3081336.029995.46 0 2.9141843-.5866314 5.6443883-1.8659858 7.96-3.73 2.086034-1.6505967 3.7372354-3.78583 4.81-6.22 2.209139 0 4-1.790861 4-4s-1.790861-4-4-4z" fill="#dfc49c"/><path id="Shape" d="m30 45c-.0473891 1.0562873-.3492878 2.0854875-.88 3-.87 1.5-2.62 3-6.12 3-7 0-7-6-7-6s2.98-2.43 3.85-7.9c.949893.3584026 1.9261542.6425882 2.92.85.1518664.029995.3081336.029995.46 0 .9938458-.2074118 1.970107-.4915974 2.92-.85.87 5.47 3.85 7.9 3.85 7.9z" fill="#ffe0b2"/><path id="Shape" d="m26.15 37.1c-.92551.3478325-1.8758531.6256149-2.843.831.448624 2.6888718 1.7421639 5.1649166 3.693 7.069-.0473891 1.0562873-.3492878 2.0854875-.88 3-.99106 1.6441326-2.7077112 2.7161107-4.62 2.885.496481.0752619.9978486.1137001 1.5.115 3.5 0 5.25-1.5 6.12-3 .5307122-.9145125.8326109-1.9437127.88-3 0 0-2.98-2.43-3.85-7.9z" fill="#dfc49c"/><path id="Shape" d="m42 57v1c0 .5522847-.4477153 1-1 1h-36c-.55228475 0-1-.4477153-1-1v-1c-.00425371-3.1839 1.25866235-6.2386191 3.51002164-8.4899784s5.30607836-3.5142753 8.48997836-3.5100216c0 0 0 6 7 6 3.5 0 5.25-1.5 6.12-3 .5307122-.9145125.8326109-1.9437127.88-3 6.627417 0 12 5.372583 12 12z" fill="#e91e63"/><path id="Shape" d="m30 45s0 .151-.028.386c5.3098119 1.3533218 9.0263551 6.1344398 9.028 11.614v1c0 .5522847-.4477153 1-1 1h3c.5522847 0 1-.4477153 1-1v-1c0-6.627417-5.372583-12-12-12z" fill="#ad1457"/><path id="Shape" d="m43.82 40h-2.83c-7.34 0-9.29-3.78-9.8-5.78 2.086034-1.6505967 3.7372354-3.78583 4.81-6.22 2.209139 0 4-1.790861 4-4s-1.790861-4-4-4v-4.1c-5.18-.36-10.49-1.88-13-6.9-2.51 5.02-7.82 6.54-13 6.9v4.1c-2.209139 0-4 1.790861-4 4s1.790861 4 4 4c1.0727646 2.43417 2.723966 4.5694033 4.81 6.22-.51 2-2.46 5.78-9.8 5.78h-2.83c-.43577494-.0018107-.83564407-.2418669-1.04212229-.6256244s-.18647856-.8497214.05212229-1.2143756c.57333725-.9522137.86140309-2.0489463.83-3.16v-13.02c0-11.5869341 9.3930659-20.98 20.98-20.98s20.98 9.3930659 20.98 20.98v13.02c-.0314031 1.1110537.2566627 2.2077863.83 3.16.2386008.3646542.2586005.8306181.0521223 1.2143756s-.6063474.6238137-1.0421223.6256244z" fill="#91562d"/><path id="Shape" d="m44.81 38.16c-.5733373-.9522137-.8614031-2.0489463-.83-3.16v-13.02c.0010612-5.5645672-2.2089845-10.9015289-6.1437278-14.83627222-3.9347433-3.93474329-9.271705-6.14478901-14.8362722-6.14372778-.506 0-1 .041-1.5.076 10.9709376.77709305 19.4754798 9.9015763 19.48 20.9v13.024c-.0314031 1.1110537.2566627 2.2077863.83 3.16.2344025.3592898.2567028.8170999.0583297 1.1974706-.1983732.3803706-.5865482.6241072-1.0153297.6375294.047 0 .089.005.137.005h2.83c.4357749-.0018107.8356441-.2418669 1.0421223-.6256244s.1864785-.8497214-.0521223-1.2143756z" fill="#6d4122"/><g fill="#000"><path id="Shape" d="m2.18 41h2.83c6.642 0 9.254-2.985 10.276-5.167 1.0755589.7450403 2.2253533 1.3767402 3.431 1.885-.4266989 2.3547111-1.5139512 4.5396201-3.135 6.3-7.00738002.2290797-12.57226777 5.9708833-12.582 12.982v1c0 1.1045695.8954305 2 2 2h36c1.1045695 0 2-.8954305 2-2v-1c-.0103064-7.0103753-5.5753261-12.7509882-12.582-12.979-1.6207285-1.7606003-2.7079321-3.9454114-3.135-6.3 1.2056467-.5082598 2.3554411-1.1399597 3.431-1.885 1.022 2.179 3.634 5.164 10.276 5.164h2.83c.7908219.0063954 1.5210089-.4228776 1.9-1.117.39006-.7073027.3647777-1.5707325-.066-2.254-.4686855-.7949939-.7023877-1.7065709-.674-2.629v-13.02c0-12.1392188-9.8407812-21.98-21.98-21.98s-21.98 9.8407812-21.98 21.98v13.02c.02753504.9231741-.20757941 1.8351962-.678 2.63-.42985875.6832715-.45475122 1.5460825-.065 2.253.37950007.6950775 1.11110565 1.1245065 1.903 1.117zm8.82-21v-3.174c4.4-.421 9.163-1.784 12-5.868 2.837 4.084 7.6 5.447 12 5.868v3.174c0 .5522847.4477153 1 1 1 1.6568542 0 3 1.3431458 3 3s-1.3431458 3-3 3c-.415996-.0003139-.7887375.2569415-.936.646-1.0003176 2.2597079-2.5358929 4.241815-4.474 5.775l-.009.007c-2.2109779 1.7767088-4.8181386 2.9934982-7.6 3.547-2.7593212-.5526164-5.3453293-1.7605634-7.54-3.522-.018-.015-.036-.03-.056-.044-1.9262066-1.5324851-3.4524141-3.5088689-4.448-5.76-.1464095-.3905823-.5198787-.6492605-.937-.649-1.65685425 0-3-1.3431458-3-3s1.34314575-3 3-3c.5522847 0 1-.4477153 1-1zm30 37v1h-36v-1c.00615047-5.7318984 4.40793022-10.5007468 10.121-10.965.368 1.948 1.858 5.965 7.879 5.965s7.511-4.017 7.879-5.965c5.7130698.4642532 10.1148495 5.2331016 10.121 10.965zm-12.028-11.595c-.138 1.24-.972 4.595-5.972 4.595s-5.835-3.36-5.972-4.595c1.8200644-1.9532661 3.0612765-4.3740626 3.585-6.992.624.2 1.268.374 1.955.519.2848868.0598861.5791132.0598861.864 0 .687-.145 1.33-.325 1.955-.519.523974 2.6178501 1.7651528 5.0385815 3.585 6.992zm-26.935-6.714c.67177239-1.1119163 1.01275544-2.3922504.983-3.691v-13.02c.00000023-11.0346491 8.9453509-19.97999958 19.98-19.97999958s19.9799998 8.94535048 19.98 19.97999958v13.02c-.0297547 1.2983003.3108645 2.5782238.982 3.69.0468847.066097.0515548.1532723.012.224-.0292699.0571221-.0900139.0910441-.154.086h-2.83c-5.92 0-7.949-2.556-8.644-4.436 1.8021689-1.5624408 3.2736882-3.4694999 4.328-5.609 2.4181929-.3265475 4.2474757-2.3509109 4.3281506-4.7897183s-1.6108248-4.5796369-4.0021506-5.0652817v-2.138c.689.028 1.359.038 2 .038.5522847 0 1-.4477153 1-1s-.4477153-1-1-1c-.939 0-1.946-.023-2.982-.1-.0059909-.0004662-.0120091-.0004662-.018 0h-.01c-4.588-.327-9.743-1.644-12.1-6.349-.187968-.31527061-.5279475-.50839059-.895-.50839059s-.707032.19311998-.895.50839059c-2.352 4.7-7.507 6.022-12.095 6.349h-.01c-.00599094-.0004662-.01200906-.0004662-.018 0-1.036.073-2.043.1-2.982.1-.55228475 0-1 .4477153-1 1s.44771525 1 1 1c.641 0 1.311-.01 2-.038v2.138c-2.38992324.4868594-4.07984355 2.6270226-3.99919791 5.064698.08064565 2.4376755 1.90832209 4.461466 4.32519791 4.789302 1.0542697 2.139254 2.5254077 4.0462596 4.327 5.609-.689 1.881-2.718 4.437-8.638 4.437h-2.83c-.06398611.0050441-.1247301-.0288779-.154-.086-.03942594-.0702863-.03515179-.156935.011-.223z"/><path id="Shape" d="m23 33c1.9818873.1306101 3.8714373-.853884 4.9-2.553.2426084-.4876011.0472003-1.0796251-.438-1.327-.488033-.2480667-1.0848496-.0617002-1.345.42-.6977196 1.0154815-1.8902118 1.5740438-3.117 1.46-1.2184107.1105278-2.4022598-.4420624-3.1-1.447-.2468713-.4942948-.8477051-.6948713-1.342-.448-.4942948.2468713-.6948713.8477052-.448 1.342 1.026865 1.6957855 2.9115998 2.6797789 4.89 2.553z"/></g></g></g></svg>