<svg xmlns="http://www.w3.org/2000/svg" viewBox="0 0 380.7 98.42"><defs><style>.a,.b{fill:#002e6e;}.a,.c{fill-rule:evenodd;}.c{fill:#ef6c00;}</style></defs><path class="a" d="M41.55,19.5a31.78,31.78,0,0,1-1.19-9.8,9.54,9.54,0,0,0-.19-2.4c-.3-2.83-2.05-5.94-5.72-6.48a7.22,7.22,0,0,0-3,.07,12.07,12.07,0,0,0-9.29,10.73c-.23,4.5,4.49,12.93,1.87,16-1.37,1.6-7.78,1.59-10.39,2.28l6-.21a4.83,4.83,0,0,1,4.62,3,5.39,5.39,0,0,1,.36,1h0a.93.93,0,0,1,0,.13h0l0,.13h0l0,.13h0c0,.05,0,.09,0,.14h0l0,.13h0l0,.13h0v.14h0v.14c0,.18,0,.37,0,.56v.46c0,.24,0,.47-.06.7h0l0,.14h0l0,.14h0l0,.13h0l0,.14h0l0,.13h0l0,.13h0l-.05.13h0l0,.13,0,.13-.05.13-.05.13-.05.1a6.2,6.2,0,0,1-2.76,3.17,5.15,5.15,0,0,1,4.44,5,4.82,4.82,0,0,1,0,.54v.46a6,6,0,0,1-5.09,5.64l.1,0,.22.06h0l.43.17h0l.4.21,0,0h0l.08,0h0l.29.2h0l.18.14h0a4.92,4.92,0,0,1,.79.85l.07.09a5.77,5.77,0,0,1,.4.68h0l.05.11v0l.09.21v0c0,.08.06.16.08.23h0l0,.1a1.54,1.54,0,0,1,.05.17l0,.07v.06l0,.09v0l0,.1h0v0l0,.09v0l0,.2V57h0v.23h0v1.15A5.79,5.79,0,0,1,19.62,64l.2,0,.21.07h0a4.17,4.17,0,0,1,1,.53h0a4.45,4.45,0,0,1,1,1.08l0,.06,0,0h0a4,4,0,0,1,.34.61l0,0v0l0,.06.05.1h0v0c.06.15.11.3.16.45h0l0,.1h0v0l0,.09h0a7.88,7.88,0,0,1-.18,4.15A4.43,4.43,0,0,1,18.59,75l-7,.32c2.66.17,5.45.33,8.3.45H38.68c1-.06,2-.12,2.89-.2a5.05,5.05,0,0,0,.94-.21A13.58,13.58,0,0,0,53,62.34S52.4,43.44,52.68,38c.42-7.92-3-9.18-7.82-12.59C43.48,24.42,42.36,22.15,41.55,19.5Z" transform="translate(-1.46 -0.69)"/><path class="a" d="M19.74,30.28a4.61,4.61,0,0,1,4.71,5l0,.42A5.47,5.47,0,0,1,19.36,41l-12.15.45a4.6,4.6,0,0,1-4.71-5V36a5.47,5.47,0,0,1,5.07-5.31Z" transform="translate(-1.46 -0.69)"/><path class="a" d="M20.38,41.6a4.86,4.86,0,0,1,5.2,5l0,.44A5.74,5.74,0,0,1,20,52.41L6.66,52.9a4.85,4.85,0,0,1-5.19-5v-.44A5.77,5.77,0,0,1,7,42.08Z" transform="translate(-1.46 -0.69)"/><path class="a" d="M19.41,53.12a4.52,4.52,0,0,1,4.74,4.77l0,.42A5.43,5.43,0,0,1,19,63.45L6.76,63.9A4.52,4.52,0,0,1,2,59.13l0-.41a5.41,5.41,0,0,1,5.12-5.14Z" transform="translate(-1.46 -0.69)"/><path class="a" d="M18.33,64.29c2.46-.08,4.39,2.1,4.31,4.87v.42c-.07,2.77-2.13,5.09-4.58,5.17L7,75.14c-2.45.09-4.38-2.09-4.31-4.87v-.41c.08-2.78,2.13-5.1,4.59-5.18Z" transform="translate(-1.46 -0.69)"/><path class="b" d="M253.91,93.59a4.65,4.65,0,0,1-.49,2.17,4.39,4.39,0,0,1-1.34,1.59,6.4,6.4,0,0,1-2.18,1.06,12.13,12.13,0,0,1-3,.31h-7.31V82h6.5a22.94,22.94,0,0,1,3,.14,6,6,0,0,1,1.86.6,3.24,3.24,0,0,1,1.43,1.3,3.9,3.9,0,0,1-.18,4,4.1,4.1,0,0,1-1.81,1.44v.09A4.75,4.75,0,0,1,253,90.88,3.82,3.82,0,0,1,253.91,93.59Zm-5.54-6.9a1.86,1.86,0,0,0-.21-.83,1.3,1.3,0,0,0-.73-.62,3.86,3.86,0,0,0-1.18-.2h-2.38v3.54h.67c.69,0,1.27,0,1.75,0a3.17,3.17,0,0,0,1.13-.22,1.41,1.41,0,0,0,.77-.67A2.38,2.38,0,0,0,248.37,86.69Zm1,6.83a2.12,2.12,0,0,0-.31-1.23,1.88,1.88,0,0,0-1.05-.65,5.49,5.49,0,0,0-1.4-.16h-2.79v4.18h2.92a3.87,3.87,0,0,0,1.45-.3,1.69,1.69,0,0,0,.92-.75A2.2,2.2,0,0,0,249.42,93.52Z" transform="translate(-1.46 -0.69)"/><path class="b" d="M267.84,93.15h-9.28a2.91,2.91,0,0,0,1.13,2.27,5,5,0,0,0,3.07.79,6.91,6.91,0,0,0,2.49-.46,8.1,8.1,0,0,0,1.9-1h.45V98a14.56,14.56,0,0,1-2.59.8,13.16,13.16,0,0,1-2.69.25,8.84,8.84,0,0,1-5.84-1.71,6,6,0,0,1-2-4.88,6.52,6.52,0,0,1,1.92-5,7.31,7.31,0,0,1,5.26-1.83,6.27,6.27,0,0,1,4.64,1.56,6.08,6.08,0,0,1,1.56,4.49v1.42Zm-4-2.38a2.8,2.8,0,0,0-.63-1.91,2.39,2.39,0,0,0-1.85-.65,3,3,0,0,0-1.93.61,2.62,2.62,0,0,0-.84,2Z" transform="translate(-1.46 -0.69)"/><path class="b" d="M281.53,89.76v9h-4.07V92.4c0-.61,0-1.14,0-1.57a2.89,2.89,0,0,0-.25-1,1.25,1.25,0,0,0-.61-.59A2.8,2.8,0,0,0,275.4,89a2.94,2.94,0,0,0-1.16.24,10.5,10.5,0,0,0-1,.52v9h-4.07V86.07h4.07v1.4a10.73,10.73,0,0,1,2-1.28,4.76,4.76,0,0,1,2.11-.46,4.32,4.32,0,0,1,2.21.55A3.83,3.83,0,0,1,281,87.92a12.87,12.87,0,0,1,2.36-1.61,5,5,0,0,1,2.25-.58A3.88,3.88,0,0,1,288.76,87a5.21,5.21,0,0,1,1.07,3.53v8.23h-4.07V92.41c0-.63,0-1.15,0-1.58a2.71,2.71,0,0,0-.24-1,1.17,1.17,0,0,0-.61-.59A3,3,0,0,0,283.7,89a2.8,2.8,0,0,0-1,.18A7,7,0,0,0,281.53,89.76Z" transform="translate(-1.46 -0.69)"/><path class="b" d="M312.29,89.76v9h-4.07V92.4c0-.61,0-1.14,0-1.57a2.89,2.89,0,0,0-.25-1,1.25,1.25,0,0,0-.61-.59,2.8,2.8,0,0,0-1.16-.19,2.94,2.94,0,0,0-1.16.24,10.5,10.5,0,0,0-1,.52v9h-4.07V86.07H304v1.4a10.73,10.73,0,0,1,2-1.28,4.76,4.76,0,0,1,2.11-.46,4.32,4.32,0,0,1,2.21.55,3.83,3.83,0,0,1,1.49,1.64,12.87,12.87,0,0,1,2.36-1.61,5,5,0,0,1,2.25-.58A3.88,3.88,0,0,1,319.52,87a5.21,5.21,0,0,1,1.07,3.53v8.23h-4.07V92.41c0-.63,0-1.15,0-1.58a2.71,2.71,0,0,0-.24-1,1.17,1.17,0,0,0-.61-.59,3,3,0,0,0-1.17-.19,2.8,2.8,0,0,0-1,.18A7,7,0,0,0,312.29,89.76Z" transform="translate(-1.46 -0.69)"/><path class="b" d="M335.27,93.15H326a2.88,2.88,0,0,0,1.13,2.27,5,5,0,0,0,3.07.79,6.81,6.81,0,0,0,2.48-.46,8,8,0,0,0,1.91-1H335V98a14.56,14.56,0,0,1-2.59.8,13.16,13.16,0,0,1-2.69.25,8.84,8.84,0,0,1-5.84-1.71,6,6,0,0,1-2-4.88,6.52,6.52,0,0,1,1.92-5,7.31,7.31,0,0,1,5.26-1.83,6.27,6.27,0,0,1,4.64,1.56,6.08,6.08,0,0,1,1.56,4.49v1.42Zm-4-2.38a2.8,2.8,0,0,0-.63-1.91,2.39,2.39,0,0,0-1.85-.65,3,3,0,0,0-1.93.61,2.62,2.62,0,0,0-.84,2Z" transform="translate(-1.46 -0.69)"/><path class="b" d="M340.67,98.72H336.6V81.2h4.07Z" transform="translate(-1.46 -0.69)"/><path class="b" d="M355.66,98.72H351.6V92.45c0-.51,0-1-.08-1.53a3.14,3.14,0,0,0-.27-1.12,1.33,1.33,0,0,0-.66-.6,3,3,0,0,0-1.21-.2,3.69,3.69,0,0,0-1.12.18,6.1,6.1,0,0,0-1.23.58v9H343V81.2H347v6.27a10.5,10.5,0,0,1,2.07-1.29,5.32,5.32,0,0,1,2.21-.45,4.25,4.25,0,0,1,3.2,1.19,5,5,0,0,1,1.15,3.57v8.23Z" transform="translate(-1.46 -0.69)"/><path class="b" d="M370.79,92.4A6.61,6.61,0,0,1,369,97.32a8.19,8.19,0,0,1-10.22,0,7.59,7.59,0,0,1,0-9.85,8.17,8.17,0,0,1,10.22,0A6.65,6.65,0,0,1,370.79,92.4Zm-5,3.08a3.31,3.31,0,0,0,.59-1.17,9.11,9.11,0,0,0,0-3.75,3.17,3.17,0,0,0-.56-1.21,2,2,0,0,0-.87-.65,3.33,3.33,0,0,0-2.13,0,2,2,0,0,0-.88.63,3.36,3.36,0,0,0-.59,1.2,7.37,7.37,0,0,0-.22,1.93,7.73,7.73,0,0,0,.19,1.79,3.08,3.08,0,0,0,.57,1.22,2.1,2.1,0,0,0,.86.65,3.09,3.09,0,0,0,1.14.2A2.93,2.93,0,0,0,365,96.1,2,2,0,0,0,365.81,95.48Z" transform="translate(-1.46 -0.69)"/><path class="b" d="M381.34,89.94H381a3.56,3.56,0,0,0-.83-.14c-.38,0-.7,0-.95,0a9.79,9.79,0,0,0-1.53.11,8.26,8.26,0,0,0-1.43.38v8.47h-4.06V86.07h4.06v1.86a8.48,8.48,0,0,1,2.33-1.52,5,5,0,0,1,1.82-.38h.48l.47,0v3.87Z" transform="translate(-1.46 -0.69)"/><path class="c" d="M369.86,71.29c-.65.49-1.47,1.09-2.43,1.78a16.62,16.62,0,0,1-2.73,1.62,17,17,0,0,1-3.67,1.2,21.57,21.57,0,0,1-4.18.4A12.41,12.41,0,0,1,348,73a10.76,10.76,0,0,1-3.44-8.45,11.66,11.66,0,0,1,2-6.72,12.7,12.7,0,0,1,5.26-4.12,30,30,0,0,1,8.29-2.14q4.93-.63,10.23-.93V50.4a4.2,4.2,0,0,0-2.44-4.27,18,18,0,0,0-7.42-1.19A21.64,21.64,0,0,0,354.14,46q-3.37,1-4.85,1.61h-1.1l.18-9.06c1.27-.33,3.34-.73,6.19-1.18a55,55,0,0,1,8.58-.68c6.8,0,11.7,1,14.67,3.15s4.44,5.42,4.35,9.91l-.5,25.52H369.78l.08-4Zm.11-5.81.15-7.84c-1.62.14-3.36.33-5.24.56a25,25,0,0,0-4.29.82,6,6,0,0,0-2.76,1.65,4.29,4.29,0,0,0-1,2.87,8,8,0,0,0,.15,1.91,2.82,2.82,0,0,0,1,1.4,4.84,4.84,0,0,0,1.8,1,12.5,12.5,0,0,0,3.31.32,9.93,9.93,0,0,0,3.63-.74A11.7,11.7,0,0,0,370,65.48Z" transform="translate(-1.46 -0.69)"/><path class="c" d="M341.61,75.22a31.52,31.52,0,0,1-4.13.78,41.63,41.63,0,0,1-5.32.29q-7,0-10.38-2.84t-3.23-9.7l.34-17.51h-7.35l.16-8.13h7.35l.21-10.72h12l-.21,10.72h11.26l-.16,8.13H330.91l-.26,13.29c0,1.32,0,2.47,0,3.45a7.3,7.3,0,0,0,.49,2.64,3.63,3.63,0,0,0,1.61,1.86,7,7,0,0,0,3.45.68,10.12,10.12,0,0,0,2.46-.41,10.23,10.23,0,0,0,2.15-.75h1Z" transform="translate(-1.46 -0.69)"/><path class="c" d="M310.57,62.39a11.06,11.06,0,0,1-5.39,9.34q-5.25,3.55-14.29,3.56a40,40,0,0,1-9.06-.94,34,34,0,0,1-6.49-2.06l.19-9.84h1.11c.58.42,1.27.87,2,1.37A20.62,20.62,0,0,0,282,65.44a29,29,0,0,0,4.2,1.31,22.63,22.63,0,0,0,5.06.54,13.37,13.37,0,0,0,5.24-.78,2.57,2.57,0,0,0,1.74-2.32,2.1,2.1,0,0,0-1-2A13.23,13.23,0,0,0,293.5,61c-.89-.19-2.09-.41-3.61-.65a36.6,36.6,0,0,1-4.13-.84c-3.38-.89-5.88-2.27-7.48-4.15a10,10,0,0,1-2.34-7q.12-5.4,5.3-9t14.06-3.59a36.9,36.9,0,0,1,8,.86,32.05,32.05,0,0,1,6,1.82L309.14,48h-1a24,24,0,0,0-6-3,21.31,21.31,0,0,0-6.9-1.16,13.3,13.3,0,0,0-4.9.8c-1.33.53-2,1.3-2,2.28a2.32,2.32,0,0,0,.86,2,11.79,11.79,0,0,0,4.2,1.4c1.23.25,2.53.49,3.94.72s2.82.52,4.24.89a13,13,0,0,1,6.92,3.87A9.65,9.65,0,0,1,310.57,62.39Z" transform="translate(-1.46 -0.69)"/><path class="c" d="M274,57.8H246.56a8.49,8.49,0,0,0,3.21,6.75c2,1.56,5,2.34,9,2.34a20.48,20.48,0,0,0,7.39-1.39,23.45,23.45,0,0,0,5.69-3h1.33l-.18,9.66a44.35,44.35,0,0,1-7.72,2.36,40.19,40.19,0,0,1-8,.74q-11.3,0-17.19-5.06t-5.72-14.44q.18-9.27,6-14.69t15.7-5.41q9.13,0,13.64,4.62t4.34,13.3L274,57.8Zm-11.81-7c0-2.52-.6-4.41-1.76-5.68s-3-1.9-5.45-1.9a8.89,8.89,0,0,0-5.72,1.8c-1.51,1.2-2.37,3.13-2.61,5.78Z" transform="translate(-1.46 -0.69)"/><path class="c" d="M232.11,49.33h-1.06a11.13,11.13,0,0,0-2.46-.41c-1.13-.08-2.07-.13-2.82-.13a27.61,27.61,0,0,0-4.53.33A26,26,0,0,0,217,50.26l-.49,25h-12l.73-37.43h12l-.11,5.5a26,26,0,0,1,7-4.52,15.4,15.4,0,0,1,5.4-1.11l1.42,0c.54,0,1,.06,1.4.1Z" transform="translate(-1.46 -0.69)"/><path class="c" d="M202.51,55.37a24.36,24.36,0,0,1-1.59,8.43,19.16,19.16,0,0,1-3.85,6.26A16.72,16.72,0,0,1,191.56,74,16.41,16.41,0,0,1,185,75.33a18.86,18.86,0,0,1-5.43-.68,26.65,26.65,0,0,1-4.54-1.92l-.12,17h-12l.82-52.59h12l-.07,3.91a30.16,30.16,0,0,1,5.72-3.57,15.58,15.58,0,0,1,6.69-1.36q7,0,10.8,5.13t3.62,14.11Zm-12.44.25q.1-5.48-1.71-7.94t-5.85-2.47a12.59,12.59,0,0,0-3.5.52,15.26,15.26,0,0,0-3.46,1.49l-.37,18.83a9.32,9.32,0,0,0,2.55.61c.91.09,1.81.13,2.7.13,3.17,0,5.56-.93,7.14-2.79S190,59.36,190.07,55.62Z" transform="translate(-1.46 -0.69)"/><path class="c" d="M136.54,48.8,136,75.32H124l.37-18.69c0-1.82,0-3.37-.05-4.64a8.18,8.18,0,0,0-.66-3.12,3.63,3.63,0,0,0-1.79-1.75,8.46,8.46,0,0,0-3.42-.55,8.76,8.76,0,0,0-3.46.72,25.16,25.16,0,0,0-3,1.51l-.52,26.52h-12l.73-37.42h12L112.09,42a33.52,33.52,0,0,1,6-3.8,14.42,14.42,0,0,1,6.29-1.37,12.56,12.56,0,0,1,6.5,1.65,10.91,10.91,0,0,1,4.35,4.85,37.78,37.78,0,0,1,7.08-4.77A14.87,14.87,0,0,1,149,36.87q6.06,0,9.14,3.63T161.08,51l-.47,24.36h-12L149,56.63c0-1.84,0-3.4,0-4.66a8,8,0,0,0-.65-3.1,3.42,3.42,0,0,0-1.78-1.75,8.61,8.61,0,0,0-3.46-.55,8.9,8.9,0,0,0-3,.51A24.58,24.58,0,0,0,136.54,48.8Z" transform="translate(-1.46 -0.69)"/><polygon class="c" points="95.5 74.63 59.64 74.59 59.82 20.32 95.74 20.32 95.71 30.82 72.63 30.82 72.59 40.12 94.04 40.12 94 50.62 72.56 50.62 72.51 63.95 95.59 63.95 95.5 74.63"/></svg>